<?xml version="1.0" encoding="UTF-8" standalone="no"?>
<svg
   xmlns:dc="http://purl.org/dc/elements/1.1/"
   xmlns:cc="http://creativecommons.org/ns#"
   xmlns:rdf="http://www.w3.org/1999/02/22-rdf-syntax-ns#"
   xmlns:svg="http://www.w3.org/2000/svg"
   xmlns="http://www.w3.org/2000/svg"
   id="svg3716"
   version="1.1"
   viewBox="0 0 500 242.906265258788"
   height="242.906265258789"
   width="500">
  <defs
     id="defs3710" />
  <metadata
     id="metadata3713">
    <rdf:RDF>
      <cc:Work
         rdf:about="">
        <dc:format>image/svg+xml</dc:format>
        <dc:type
           rdf:resource="http://purl.org/dc/dcmitype/StillImage" />
        <dc:title></dc:title>
      </cc:Work>
    </rdf:RDF>
  </metadata>
  <g
     transform="translate(-46.532143030392,61.9795251142494)"
     id="layer1">
    <path
       id="path11595"
       style="fill:#ffffff;fill-opacity:1;fill-rule:nonzero;stroke:none;stroke-width:7.0801110268"
       d="M 515.692065263845,172.687025500067 H 284.186594652595 V -53.3101950966427 h 231.50547061125 z" />
    <g
       transform="matrix(7.08011141869376,0,0,-7.08011141869376,322.021294752488,-0.400487956942726)"
       id="g11661">
      <path
         id="path11663"
         style="fill:#231f20;fill-opacity:1;fill-rule:nonzero;stroke:none"
         d="m 0,0 v -7.947 h 1.678 v 5.269 l 3.22,-4.991 c 0.125,-0.166 0.325,-0.278 0.553,-0.278 h 0.484 c 0.351,0 0.638,0.288 0.638,0.641 V 0.64 H 4.898 V -4.619 L 1.678,0.358 C 1.552,0.528 1.353,0.64 1.125,0.64 H 0.643 C 0.287,0.64 0,0.35 0,0 m 0,-10.687 v -5.151 c 0,-0.935 0.744,-1.69 1.674,-1.715 h 4.899 v 1.49 H 1.901 c -0.124,0 -0.223,0.103 -0.223,0.225 v 1.866 h 4.485 v 1.491 H 1.678 v 1.794 c 0,0.122 0.099,0.223 0.223,0.223 h 4.672 v 1.497 H 1.674 V -8.97 C 0.744,-8.996 0,-9.757 0,-10.687 m 7.466,0 v -6.866 h 1.676 v 6.866 c 0,0.122 0.1,0.223 0.225,0.223 h 3.505 c 0.122,0 0.224,-0.101 0.224,-0.223 v -1.568 c 0,-0.123 -0.102,-0.226 -0.225,-0.226 h -2.648 c -0.126,0 -0.238,-0.076 -0.281,-0.186 l -0.566,-1.305 h 2.126 l 1.756,-3.581 H 15.2 l -1.886,3.585 c 0.811,0.133 1.459,0.836 1.459,1.692 v 1.589 c 0,0.934 -0.747,1.691 -1.673,1.717 v 0.003 H 9.141 V -8.97 C 8.211,-8.996 7.466,-9.757 7.466,-10.687 m 7.307,4.456 c 0,-0.934 0.742,-1.692 1.673,-1.716 h 4.895 c 0.926,0.024 1.672,0.782 1.672,1.716 V 0.637000000000001 H 21.335 V -6.231 c 0,-0.121 -0.1,-0.222 -0.222,-0.222 h -1.381 v 7.09 h -1.68 v -7.09 H 16.67 c -0.123,0 -0.219,0.101 -0.219,0.222 v 6.868000000000002 h -1.678 z m 1.045,-4.456 v -6.866 h 1.677 v 6.866 c 0,0.122 0.102,0.223 0.226,0.223 h 3.392 c 0.122,0 0.222,-0.101 0.222,-0.223 v -1.794 h -2.717 c -0.127,0 -0.235,-0.076 -0.283,-0.186 l -0.571,-1.305 h 3.571 v -3.581 h 1.678 v 6.866 c 0,0.934 -0.746,1.691 -1.672,1.717 v 0.003 H 17.492 V -8.97 c -0.928,-0.026 -1.674,-0.783 -1.674,-1.717 m -6.677,2.74 h 4.739 v 1.495 H 9.367 c -0.122,0 -0.225,0.101 -0.225,0.221 v 1.867 h 4.325 v 1.492 H 9.142 v 1.792 c 0,0.120999999999983 0.103,0.223999999999983 0.225,0.223999999999983 H 13.88 V 0.64 H 9.141 V 0.637 C 8.211,0.611 7.466,-0.145 7.466,-1.08 v -5.151 c 0,-0.931 0.745,-1.689 1.675,-1.715 z" />
    </g>
    <g
       transform="matrix(7.08011141869376,0,0,-7.08011141869376,535.781125316887,171.273135496333)"
       id="g11669">
      <path
         id="path11671"
         style="fill:#231f20;fill-opacity:1;fill-rule:nonzero;stroke:none"
         d="M 0,0 H 0.212 C 0.43,0 0.5,0.062 0.5,0.19 0.5,0.302 0.446,0.364 0.242,0.364 H 0 Z M 0,-0.654 H -0.18 V 0.511 H 0.267 C 0.544,0.511 0.68,0.408 0.68,0.179 0.68,-0.03 0.549,-0.12 0.375,-0.142 L 0.708,-0.654 H 0.512 L 0.201,-0.147 H 0 Z m 0.215,1.43 C -0.253,0.776 -0.615,0.413 -0.615,-0.068 -0.615,-0.561 -0.253,-0.918 0.215,-0.918 c 0.463,0 0.825,0.357 0.825,0.85 C 1.04,0.413 0.678,0.776 0.215,0.776 m 0,0.163 C 0.765,0.939 1.236,0.511 1.236,-0.068 1.236,-0.654 0.765,-1.081 0.215,-1.081 -0.341,-1.081 -0.811,-0.654 -0.811,-0.068 -0.811,0.511 -0.341,0.939 0.215,0.939" />
    </g>
    <path
       id="path11673"
       style="fill:#231f20;fill-opacity:1;fill-rule:nonzero;stroke:none;stroke-width:7.0801110268"
       d="M 515.295555262797,171.313465496442 H 285.751284656725 V -52.3613050941339 H 515.295555262797 Z M 48.532143030392,-59.9795251142494 v 0 238.9042006307864 H 522.913765282914 v -238.9042006307864 0 z" />
    <g
       transform="matrix(7.08011141869376,0,0,-7.08011141869376,119.510984217799,8.6862260670527)"
       id="g11675">
      <path
         id="path11677"
         style="fill:#ffffff;fill-opacity:1;fill-rule:nonzero;stroke:none"
         d="m 0,0 c 0,0 0.303,-1.03 0.331,-1.153 0.01,0.575 0.533,0.98 1.202,0.847 0.663,-0.134 1.712,-0.347 2.144,-0.432 1.909,-0.38 2.804,-0.716 3.507,-2.35 L 9.424,-8.29 C 8.939,-7.977 8.299,-7.856 6.679,-8.067 L 6.28,-8.116 c 0,0 -1.132,3.077 -1.469,3.992 -0.34,0.919 -0.74,1.481 -1.836,1.617 -0.304,0.034 -2.338,0.281 -2.338,0.281 L 2.477,-8.6 -1.602,-9.121 -3.612,0.722 Z m 15.224,-4.117 c 0.551,-0.06 0.893,-0.324 1.073,-0.619 0.053,-0.085 0.246,-0.395 0.246,-0.395 l -6.118,0.179 -0.703,1.457 c 0,0 5.044,-0.571 5.502,-0.622 m 1.974,-2.084 0.603,-0.987 -5.782,-1.06 -0.78,1.609 z m 1.795,-2.929 c 0,0 -4.287,-1.907 -5.389,-2.396 -1.355,-0.606 -2.558,-0.534 -2.985,0.463 -0.2,0.461 -1.077,0.435 -2.753,-0.06 L -0.682999999999996,-13.617 -1.28,-10.7 c 0,0 6.841,1.258 8.41900000000001,1.549 1.58,0.293 2.604,0.124 3.02499999999999,-0.858 0.111,-0.251 0.168,-0.383 0.168,-0.383 l 8,2.342 z m -23.149,-6.836 c 0.121,-0.918 0.99,-1.322 1.892,-1.004 0.855,0.307 7.936,3.1 9.052,3.532 1.515,0.584 2.346,0.683 2.623,-0.028 0.442,-1.139 1.772,-1.192 3.36,-0.29 1.432,0.814 7.427,4.271 7.427,4.271 0,0 -2.763,4.361 -3.051,4.821 -0.426,0.673 -0.971,1.204 -2.152,1.418 -0.836,0.149 -7.321,1.308 -7.321,1.308 -0.382,0.849 -1.448,1.738999999999949 -2.999,2.127999999999949 L -4.918,2.59 C -5.87,2.829 -6.607,2.155 -6.471,1.175 c 0,0 2.194,-16.24 2.315,-17.141" />
    </g>
  </g>
</svg>
