<svg id="Layer_1" data-name="Layer 1" xmlns="http://www.w3.org/2000/svg" viewBox="0 0 180 35.17"><defs><style>.cls-1{fill:#fff;}.cls-2{fill:#f4cd00;}</style></defs><title>Artboard 1</title><polygon class="cls-1" points="179.76 14.43 174.14 14.43 173.54 12.24 169.36 12.24 168.58 12.84 168.58 14.07 169.24 14.58 176.49 15.79 180 18.53 180 24.55 175.7 28.1 166.66 28.1 162.39 24.55 162.39 20.74 168.01 20.74 168.61 22.93 173 22.93 173.75 22.3 173.75 20.89 173.18 20.38 165.97 19.18 162.39 16.23 162.39 10.49 166.48 7.07 175.67 7.07 179.76 10.47 179.76 14.43"/><path class="cls-1" d="M138.48,28.1V23.53l2.28-.6V12.27l-2.28-.6V7.07H154.1l4.06,3.43v6.28l-3,2.52,2.28,3.64,1.59.3V28.1h-5.71l-4.81-8.2H147v3l2.28.6V28.1ZM147,15.69h4.27l.72-.61V12.84l-.72-.61H147Z"/><path class="cls-1" d="M128.47,14V12.87l-.75-.63h-3.64l-.78.63v2.37l4.6-.75Zm6.19,10.58L130.4,28.1H121.2l-4.09-3.43V10.61l4.27-3.55h9l4.3,3.55v5.71l-3.52,2.73-7.9,1.29v2l.78.63h4.36l.6-2.19h5.62Z"/><polygon class="cls-2" points="109.64 10.95 106.79 14.32 112.26 21.31 114.47 21.54 115.26 26.03 105.41 27.77 104.61 23.27 105.99 22.42 102.95 18.68 100.93 21.09 101.31 23.25 102.9 23.58 103.69 28.07 93.63 29.85 92.84 25.35 94.98 24.36 93.13 13.86 90.78 13.66 89.98 9.13 99.98 7.37 100.78 11.9 99.46 12.74 100.17 16.77 104.08 11.93 102.52 11.59 101.72 7.06 111.61 5.32 112.41 9.85 109.64 10.95"/><path class="cls-1" d="M74.87,21.19V22.3l.75.63h3.64L80,22.3V19.63l-4.6,1.05ZM88.51,28.1h-7l-.6-1.65-2,1.65h-6l-4.3-3.55V18.83l3.52-2.74L80,14.86v-2l-.78-.6H75.08l-.6,2.19H68.86v-4l4.09-3.41h9.19l4.09,3.43V22.9l2.28.6Z"/><path class="cls-1" d="M58.62,14V12.87l-.75-.63H54.23l-.78.63v2.37l4.6-.75Zm6.19,10.58L60.54,28.1H51.35l-4.09-3.43V10.61l4.27-3.55h9l4.3,3.55v5.71l-3.52,2.73-7.9,1.29v2l.78.63h4.36l.6-2.19h5.62Z"/><polygon class="cls-1" points="21.36 7.07 28.03 7.07 28.63 8.72 30.62 7.07 36.96 7.07 41.25 10.61 41.25 22.9 43.54 23.5 43.54 28.1 33.62 28.1 33.62 23.5 35 22.9 35 12.87 34.25 12.24 30.62 12.24 29.84 12.87 29.84 22.9 31.22 23.5 31.22 28.1 21.36 28.1 21.36 23.5 23.65 22.9 23.65 12.27 21.36 11.66 21.36 7.07"/><polygon class="cls-1" points="17.37 14.43 11.75 14.43 11.15 12.24 6.97 12.24 6.19 12.84 6.19 14.07 6.85 14.58 14.09 15.79 17.61 18.53 17.61 24.55 13.31 28.1 4.27 28.1 0 24.55 0 20.74 5.62 20.74 6.22 22.93 10.61 22.93 11.36 22.3 11.36 20.89 10.79 20.38 3.58 19.18 0 16.23 0 10.49 4.09 7.07 13.28 7.07 17.37 10.47 17.37 14.43"/><rect class="cls-2" width="180" height="1.76"/><rect class="cls-2" y="33.41" width="180" height="1.76"/></svg>